inDegrees=no
num_controls=7
num_derivatives=13
num_iterations=111
num_multipliers=7
num_parameters=0
num_slacks=7
num_states=26
objective=0.431191
objective_accelerations=0.050041
objective_balance=0.006817
objective_effort=0.031247
objective_height=0.341914
objective_ligament=0.001171
solver_duration=1418.523669
status=Solve_Succeeded
success=true
DataType=double
version=3
OpenSimVersion=4.5
endheader
time	/jointset/ground_pelvis/pelvis_tilt/value	/jointset/ground_pelvis/pelvis_tx/value	/jointset/ground_pelvis/pelvis_ty/value	/jointset/hip_l/hip_flexion_l/value	/jointset/hip_l/hip_adduction_l/value	/jointset/hip_l/hip_rotation_l/value	/jointset/back/lumbar_extension/value	/jointset/patellofemoral_l/patellar_flexion_l/value	/jointset/knee_l/knee_flexion_l/value	/jointset/knee_l/knee_adduction_l/value	/jointset/knee_l/knee_rotation_l/value	/jointset/ankle_l/ankle_angle_l/value	/jointset/subtalar_l/subtalar_angle_l/value	/jointset/ground_pelvis/pelvis_tilt/speed	/jointset/ground_pelvis/pelvis_tx/speed	/jointset/ground_pelvis/pelvis_ty/speed	/jointset/hip_l/hip_flexion_l/speed	/jointset/hip_l/hip_adduction_l/speed	/jointset/hip_l/hip_rotation_l/speed	/jointset/back/lumbar_extension/speed	/jointset/patellofemoral_l/patellar_flexion_l/speed	/jointset/knee_l/knee_flexion_l/speed	/jointset/knee_l/knee_adduction_l/speed	/jointset/knee_l/knee_rotation_l/speed	/jointset/ankle_l/ankle_angle_l/speed	/jointset/subtalar_l/subtalar_angle_l/speed	/forceset/tau_hip_flexion_l	/forceset/tau_hip_adduction_l	/forceset/tau_hip_rotation_l	/forceset/tau_knee_flexion_l	/forceset/tau_ankle_angle_l	/forceset/tau_subtalar_angle_l	/forceset/tau_lumbar_extension	lambda_cid13_p0	lambda_cid13_p1	lambda_cid13_p2	lambda_cid13_p3	lambda_cid13_p4	lambda_cid13_p5	lambda_cid14_p0	/jointset/ground_pelvis/pelvis_tilt/accel	/jointset/ground_pelvis/pelvis_tx/accel	/jointset/ground_pelvis/pelvis_ty/accel	/jointset/hip_l/hip_flexion_l/accel	/jointset/hip_l/hip_adduction_l/accel	/jointset/hip_l/hip_rotation_l/accel	/jointset/back/lumbar_extension/accel	/jointset/patellofemoral_l/patellar_flexion_l/accel	/jointset/knee_l/knee_flexion_l/accel	/jointset/knee_l/knee_adduction_l/accel	/jointset/knee_l/knee_rotation_l/accel	/jointset/ankle_l/ankle_angle_l/accel	/jointset/subtalar_l/subtalar_angle_l/accel	gamma_cid13_p0	gamma_cid13_p1	gamma_cid13_p2	gamma_cid13_p3	gamma_cid13_p4	gamma_cid13_p5	gamma_cid14_p0
1	-0.4527281132781223	-0.05499333296429991	0.5915596083296569	1.783629183521245	-0.2726878495509448	0.2229224751980103	-0.4363267289032623	1.422464893403548	1.422464893403528	-0.1744316178927675	0.1745283066166287	0.3085125501977441	0.04808918590198772	-0.01070027620281682	0.0002158771657184038	-0.003030043698584246	0.01608988346615311	0.0006351277669402707	0.002354228225737269	0.0001279056613586405	0.006055794065755556	0.006055794065755218	-4.172034669584156e-05	1.130259137580139e-08	0.0009794640624145499	0.001058518260179351	-0.334480287888964	0.008532337062246939	-0.01260435013925189	-0.3666732169063221	0.05017486969611966	0.01473175481191714	0.297699380629164	-30.11504821133691	0.372526550241526	-2.172430384949264	17.20053986879395	-728.9755807378048	-52.68005100557811	-0.03931401165339068	1.064446415322947	-0.02716572624701329	1.801452820097744	-5.681173902944533	-0.5952766503445749	-2.062585614280624	-0.01284854383817854	-5.527671424993462	-5.527671424992513	-0.07065518477799108	0.01633194203613287	-1.213183787503872	-1.080239779208916	4.662392243272677e-10	1.69263250541518e-10	-5.689718506357635e-09	-1.276960156877469e-09	1.585385870794959e-09	-4.818912488305676e-09	9.961830091368847e-10
1.01	-0.4527822733694488	-0.05499253631592511	0.5916192700199527	1.783506633349095	-0.2727104192476585	0.2228408940397247	-0.436325667476996	1.422249462442674	1.422249462442909	-0.1744323779467354	0.1745282598945344	0.3084619926920256	0.04804701869883302	-0.0001311717621626215	-5.487076033456238e-05	0.01495890934677489	-0.04059329502730027	-0.005146092325467096	-0.0186681799778101	8.114983961362958e-05	-0.04913560052038756	-0.04913560052038835	-0.0001082841212694469	-8.788315338236637e-06	-0.01109200943108182	-0.00948697561059164	-0.3343455733567007	0.008544926792998956	-0.0126302829319693	-0.3665917975172298	0.05031706779623372	0.01474788826491666	0.2975980238022191	-30.05529522067087	0.3513352076341522	-2.164800041646251	17.11377884147294	-728.7988118841075	-52.69389304676948	-0.03932527234874133	1.053228299702444	-0.02677655117419299	1.797093884027473	-5.660896328386488	-0.569105664302316	-2.121732952574087	-0.001073563995383175	-5.513913908832012	-5.51391390883265	0.02564031180631233	-0.009411954016911143	-1.204284793773582	-1.040961921702015	-2.108286854953932e-09	-4.091654384118467e-09	4.84435000033177e-08	6.249192554970453e-09	-8.899504712987544e-09	3.395558996174511e-08	-8.447574573971239e-09
1.02	-0.4527307252481159	-0.05499439659188879	0.5918587167081566	1.782817450090839	-0.2727907133404192	0.2225491558935672	-0.4363251705014805	1.421482309449258	1.42148230944975	-0.1744337441813285	0.1745281399681948	0.3082906893186719	0.04789954501083245	0.01044136632912238	-0.0003155077019772973	0.03292695588303277	-0.09723673375438405	-0.01090975144241451	-0.0396771693486492	1.501551176023589e-05	-0.1042886124428221	-0.1042886124428273	-0.0001629564717088996	-1.462954564401594e-05	-0.02316970946462075	-0.02000277870899575	-0.3342108588244493	0.008557516523750149	-0.01265621572468672	-0.3665103781281366	0.05045926589634971	0.0147640217179156	0.2974966669752616	-30.00380700370542	0.3327076411564544	-2.158854220761765	17.07835493131556	-728.726523060801	-52.65609573682048	-0.03933013218804433	1.065133145449105	-0.02514352936496572	1.797271518277491	-5.673225949670611	-0.5917644552525833	-2.05990184773897	-0.01672424505980269	-5.519994892251752	-5.519994892251585	-0.06827689995116101	0.01692361956089903	-1.214429095512383	-1.074301624735539	-4.844917949689365e-09	-8.453243898848058e-09	1.027601766809415e-07	1.400412368408606e-08	-1.9700423303325e-08	7.219388934065464e-08	-1.78786320477855e-08
1.03	-0.4525733447504518	-0.05499876725986078	0.5922776938374074	1.78156202534202	-0.2729285082723133	0.2220474929813717	-0.4363254192635783	1.420163891977632	1.42016389197809	-0.1744356396193537	0.1745279899491846	0.3079985586846753	0.04764714899174993	0.0210443951227366	-0.0005524387352106194	0.05086052836197454	-0.1538424903950071	-0.01664114115852604	-0.06064503373602594	-6.690863176593629e-05	-0.1593812489130954	-0.1593812489130947	-0.0002162751831248155	-1.367356046469366e-05	-0.03525924412258827	-0.03046225673156288	-0.3339172581483673	0.008622234324401915	-0.01273996210800741	-0.3662417186284346	0.05075711397889129	0.01483784275852812	0.2973144048899488	-29.88116269594763	0.267253745982752	-2.134804245283896	16.92315252972028	-728.4147893893079	-52.65178891678769	-0.03935910178344302	1.059337998916964	-0.02203541742735292	1.790202705543385	-5.653391512707638	-0.5626353927698755	-2.113692960002896	-0.004247603915811542	-5.501847559940243	-5.501847559939497	0.02610721854308447	-0.008099456840713655	-1.206636617737362	-1.02966260834752	-7.583203177235554e-09	-1.281586067765999e-08	1.570787253806873e-07	2.176138928684725e-08	-3.050456666923956e-08	1.104267172596546e-07	-2.730955992864779e-08
